<svg xmlns="http://www.w3.org/2000/svg" width="135" height="405" viewBox="0 0 135 405">
  <defs>
    <style>
      .cls-1 {
        fill: #faf0eb;
        fill-rule: evenodd;
      }
    </style>
  </defs>
  <path id="Фигура_19" data-name="Фигура 19" class="cls-1" d="M134.985,201.009c-0.012,16.23-3.6,17.173-7.36,23.222-5.519,8.871-11.326,16.668-16.877,25.563C98.916,268.754,86.5,285.579,74.692,304.63c-3.817,6.158-7.815,11.46-11.6,17.562-0.835,1.348-1.694,2.171-2.528,3.513-3.942,6.344-8.1,12.184-12.044,18.539-0.835,1.347-1.694,2.17-2.528,3.512-4.284,6.894-8.8,13.209-13.085,20.1-3.991,6.416-8.16,11.983-12.118,18.343-0.668,1.074-1.341,1.661-2.007,2.732-2.226,3.581-4.574,6.714-6.84,10.343a38.2,38.2,0,0,1-2.528,4.1c-3.607,4.188-6.988-.315-8.475-6.635-1.322-5.616-.892-17-0.892-25.954V18.16c0-2.187-.138-4.962.074-6.83,0.525-4.615,2.1-8.365,3.717-10.147,2.7-2.967,4.729.325,6.468,3.122,1.068,1.718,2.162,3.214,3.2,4.878,1.253,2.015,2.538,3.447,3.792,5.464C23.37,24.42,29.734,33.369,35.81,43.138,40.075,50,44.516,56.023,48.745,62.847c0.786,1.268,1.591,2.049,2.379,3.318C64.18,87.177,77.85,106,90.9,127.05c0.788,1.271,1.59,2.048,2.379,3.317,3.753,6.04,7.7,11.707,11.448,17.758,1.716,2.768,3.489,4.849,5.2,7.61,4.852,7.81,9.943,15.014,14.794,22.832,1.87,3.014,3.808,5.632,5.65,8.587,0.994,1.594,2.36,2.7,3.048,5.073a42.656,42.656,0,0,1,1.19,5.074C134.791,198.412,134.739,200.025,134.985,201.009Z"/>
</svg>
