<?xml version="1.0" encoding="utf-8"?>
<!-- Generator: Adobe Illustrator 23.0.1, SVG Export Plug-In . SVG Version: 6.00 Build 0)  -->
<svg version="1.1" id="Слой_1" xmlns="http://www.w3.org/2000/svg" xmlns:xlink="http://www.w3.org/1999/xlink" x="0px" y="0px"
	 viewBox="0 0 277 527" style="enable-background:new 0 0 277 527;" xml:space="preserve">
<style type="text/css">
	.st0{fill-rule:evenodd;clip-rule:evenodd;fill:#143352;}
	.st1{opacity:0.53;fill-rule:evenodd;clip-rule:evenodd;fill:#FAF0EB;enable-background:new    ;}
</style>
<path class="st0" d="M266.7,521.1c-52.1-22.8-124.4-71.2-154.1-142.1c-47.4-112.8-5.9-224.5,23-330.1c3.6-13.2,8-30,13.6-48.8H-2
	v527.1h283.4C276.3,525.2,271.4,523.2,266.7,521.1z"/>
<path class="st1" d="M112.6,379c-47.4-112.8-5.9-224.5,23-330.1c4.6-16.7,10.5-39.1,18.3-64.1C104.9,84.3,45.3,187.7,71.2,308.4
	c14.4,67.1,64.1,123.2,108.7,158.7C152.2,443.4,127.2,413.9,112.6,379z"/>
</svg>
