<svg xmlns="http://www.w3.org/2000/svg" width="260" height="243" viewBox="0 0 260 243">
  <defs>
    <style>
      .cls-1, .cls-2 {
        fill: #7ea9e0;
      }

      .cls-1, .cls-2, .cls-3 {
        fill-rule: evenodd;
      }

      .cls-1 {
        opacity: 0.6;
      }

      .cls-3 {
        fill: #fff;
      }
    </style>
  </defs>
  <path id="Фигура_16_копия" data-name="Фигура 16 копия" class="cls-1" d="M96.491,7.327C108.1,5.914,116.917,6.17,125.26,8.611c32.553,9.524,77.935,50.59,96.2,78.647,7.813,12,16.294,32.194,12.73,51.211-5.675,30.276-29.893,48-50.609,66.219-12.792,11.252-42.077,38.041-68.76,36.205-56.8-3.91-89.693-84.675-76.993-152.193C43.5,58.562,54.734,32.633,77.1,16.028,82.736,11.845,89.614,11.106,96.491,7.327Z"/>
  <path id="Фигура_16" data-name="Фигура 16" class="cls-2" d="M106.468,3.991c11.345-.179,19.823.968,27.623,4.175,30.435,12.516,70.034,56.8,84.795,85.751,6.316,12.387,12.442,32.746,7.067,50.744-8.558,28.653-33.726,43.292-55.567,58.773-13.486,9.56-44.466,32.437-70.02,27.942-54.4-9.57-77.907-90.907-58.779-154.8,8.538-28.52,22.02-52.41,45.289-66.16C92.738,6.95,99.449,6.939,106.468,3.991Z"/>
  <path id="Фигура_16_копия_2" data-name="Фигура 16 копия 2" class="cls-3" d="M106.815,7.368c11-.174,19.212.938,26.771,4.051,29.5,12.144,67.875,55.109,82.181,83.2,6.12,12.019,12.058,31.772,6.848,49.235-8.293,27.8-32.686,42-53.853,57.026-13.07,9.275-43.095,31.472-67.861,27.11-52.722-9.285-75.5-88.2-56.966-150.2C52.21,50.121,65.276,26.941,87.827,13.6,93.509,10.239,100.012,10.227,106.815,7.368Z"/>
</svg>
