<?xml version="1.0" encoding="utf-8"?>
<!-- Generator: Adobe Illustrator 23.0.1, SVG Export Plug-In . SVG Version: 6.00 Build 0)  -->
<svg version="1.1" id="Группа_1" xmlns="http://www.w3.org/2000/svg" xmlns:xlink="http://www.w3.org/1999/xlink" x="0px"
	 y="0px" viewBox="0 0 119 327" style="enable-background:new 0 0 119 327;" xml:space="preserve">
<style type="text/css">
	.st0{opacity:0.53;fill-rule:evenodd;clip-rule:evenodd;fill:#143352;enable-background:new    ;}
	.st1{fill-rule:evenodd;clip-rule:evenodd;fill:#143352;}
	.st2{fill:#DEE6EF;}
</style>
<image style="display:none;overflow:visible;enable-background:new    ;" width="119" height="327" id="Фон" xlink:href="1A5FB0EB.png" >
</image>
<path class="st0" d="M56.5,258.6c-32.3-76.9-4-153,15.7-225c3.1-11.4,7.1-26.7,12.5-43.7C51.3,57.7,10.6,128.2,28.3,210.4
	c9.8,45.7,43.7,83.9,74.1,108.1C83.5,302.4,66.5,282.3,56.5,258.6z"/>
<path class="st1" d="M112.9,326.8h6.7C92,305.4,64,274.4,53,236.7C29.8,156.6,66.7,84.3,94.5,15c1.7-4.3,3.7-9.3,5.9-14.7h-19
	c-3.8,12.8-6.8,24.2-9.3,33.2c-19.7,72-48,148.1-15.7,225C68.3,286.6,89.9,309.5,112.9,326.8z"/>
<path class="st2" d="M81.6,0H0v327h113.1c-23.1-17.3-44.8-40.3-56.6-68.4c-32.3-76.9-4-153,15.7-225C74.6,24.5,77.7,12.9,81.6,0z"/>
</svg>
