<?xml version="1.0" encoding="utf-8"?>
<!-- Generator: Adobe Illustrator 23.0.1, SVG Export Plug-In . SVG Version: 6.00 Build 0)  -->
<svg version="1.1" id="Группа_3" xmlns="http://www.w3.org/2000/svg" xmlns:xlink="http://www.w3.org/1999/xlink" x="0px"
	 y="0px" viewBox="0 0 119 327" style="enable-background:new 0 0 119 327;" xml:space="preserve">
<style type="text/css">
	.st0{fill:#DEE6EF;}
	.st1{fill-rule:evenodd;clip-rule:evenodd;fill:#143352;}
	.st2{opacity:0.53;fill-rule:evenodd;clip-rule:evenodd;fill:#143352;enable-background:new    ;}
</style>
<path class="st0" d="M80.8,0H0v327h87c-15.1-14.5-28.2-31.7-36.5-51.4c-32.3-76.9-4-153,15.7-225C69.7,37.7,74.4,19.8,80.8,0z"/>
<path class="st1" d="M86.9,326.8h33.7C93,305.4,65,274.4,54,236.7C30.8,156.6,67.7,84.3,95.5,15c1.7-4.3,3.7-9.3,5.9-14.7H80.7
	C74.3,20,69.7,37.8,66.2,50.6c-19.7,72-48,148.1-15.7,225C58.8,295.2,71.9,312.4,86.9,326.8z"/>
<path class="st2" d="M72.9,327H87c-15.1-14.5-28.2-31.7-36.5-51.4c-17.6-41.9-17.2-83.6-10-124.5c-9.4,32.7-13.1,66.8-5.2,103.3
	C41.2,281.7,55.7,306.4,72.9,327z"/>
</svg>
