<?xml version="1.0" encoding="utf-8"?>
<!-- Generator: Adobe Illustrator 23.0.1, SVG Export Plug-In . SVG Version: 6.00 Build 0)  -->
<svg version="1.1" id="Группа_2" xmlns="http://www.w3.org/2000/svg" xmlns:xlink="http://www.w3.org/1999/xlink" x="0px"
	 y="0px" viewBox="0 0 119 327" style="enable-background:new 0 0 119 327;" xml:space="preserve">
<style type="text/css">
	.st0{fill-rule:evenodd;clip-rule:evenodd;fill:#DEE6EF;}
	.st1{fill-rule:evenodd;clip-rule:evenodd;fill:#143352;}
	.st2{opacity:0.53;fill-rule:evenodd;clip-rule:evenodd;fill:#143352;enable-background:new    ;}
</style>
<path class="st0" d="M75.8,0H0v327h117.3c-26.1-17.9-51.7-42.9-64.9-74.5c-32.3-76.9-4-153,15.7-225C70.3,19.9,72.8,10.5,75.8,0z"/>
<path class="st1" d="M117.7,328h1.3c-27.7-21.6-55.9-52.9-67-90.8C28.7,156.5,65.9,83.6,93.9,13.8c1.7-4.3,3.7-9.4,5.9-14.8H75.9
	c-3,10.5-5.5,19.8-7.6,27.4C48.6,99,20.1,175.6,52.6,253.1C65.9,284.8,91.6,310,117.7,328z"/>
<path class="st2" d="M64.1,326.9h53.4C91.3,309,65.8,284,52.6,252.4c-25.7-61.1-13.1-121.5,3-179.9C29.3,126.9,7.4,184,21.3,248.3
	C27.8,278.3,44.6,305.2,64.1,326.9z"/>
</svg>
