<svg xmlns="http://www.w3.org/2000/svg" width="92" height="108" viewBox="0 0 92 108">
  <defs>
    <style>
      .cls-1 {
        fill: #b1cced;
        fill-rule: evenodd;
      }
    </style>
  </defs>
  <path id="Фигура_564" data-name="Фигура 564" class="cls-1" d="M83.441,90c-2.341-3.652-10.2-5.923-17.986-9.168a91.605,91.605,0,0,1-9.628-4.371l-0.071-7.47s2.916-2.242,3.821-9.271C61.4,60.25,63.315,57,63.417,55.287c0.1-1.65-.252-6.227-2.475-5.766a46.294,46.294,0,0,0,.624-8.185C60.986,35.334,55.081,29,46,29S31.014,35.334,30.437,41.336a45.968,45.968,0,0,0,.622,8.185c-2.224-.46-2.576,4.117-2.476,5.766C28.688,57,30.6,60.25,32.425,59.721c0.9,7.029,3.821,9.271,3.821,9.271l-0.073,7.47a91.7,91.7,0,0,1-9.628,4.371C18.762,84.079,10.9,86.35,8.558,90,6.46,93.272,7.091,109,7.091,109H84.909S85.54,93.272,83.441,90Z"/>
</svg>
