<svg id="i" xmlns="http://www.w3.org/2000/svg" width="43" height="40" viewBox="0 0 43 40">
  <defs>
    <style>
      .cls-1 {
        fill: #7ea9e0;
        fill-rule: evenodd;
      }

      .cls-2 {
        fill: #fff;
      }
    </style>
  </defs>
  <path id="Фигура_12" data-name="Фигура 12" class="cls-1" d="M0.368,11.166A14.036,14.036,0,0,1,3.894,6.574C9.206,2.3,21.167-.456,27.871-0.241,30.74-.15,35.027.771,37.734,3.543c4.309,4.412,4.424,10.438,5.025,15.944,0.371,3.4,1.388,11.3-1.987,15.487-7.186,8.909-24.216,5.052-33.822-4.8C2.661,25.782-.295,20.952-0.44,15.36-0.476,13.951.2,12.733,0.368,11.166Z"/>
  <circle id="Эллипс_3" data-name="Эллипс 3" class="cls-2" cx="24.5" cy="19.5" r="14.5"/>
  <path id="Фигура_20" data-name="Фигура 20" class="cls-1" d="M35.307,8.676a16,16,0,1,0,0,22.63A16.01,16.01,0,0,0,35.307,8.676ZM23.735,6.755a3.08,3.08,0,1,1-3.1,3.068A3.068,3.068,0,0,1,23.735,6.755Zm4.923,22.537a0.84,0.84,0,0,1-.954.959H19.8a0.843,0.843,0,0,1-.959-0.959V27.276a0.84,0.84,0,0,1,.959-0.954h1.46v-8.5H19.766a0.84,0.84,0,0,1-.954-0.959V14.843a0.837,0.837,0,0,1,.954-0.955h5.519a0.837,0.837,0,0,1,.954.955V26.322H27.7a0.837,0.837,0,0,1,.954.954v2.015Z"/>
</svg>
