<svg xmlns="http://www.w3.org/2000/svg" width="7" height="14" viewBox="0 0 7 14">
  <defs>
    <style>
      .cls-1 {
        fill: #7ea9e0;
        fill-rule: evenodd;
      }
    </style>
  </defs>
  <path id="Фигура_14_копия_3" data-name="Фигура 14 копия 3" class="cls-1" d="M0.54,0A0.578,0.578,0,0,1,.677.031C0.718,0.043.754,0.039,0.795,0.054A0.369,0.369,0,0,1,.867.108,1.041,1.041,0,0,1,1.1.338C1.142,0.389,1.2.43,1.235,0.482L1.281,0.523c0.041,0.054.1,0.1,0.136,0.149C1.55,0.847,1.724.988,1.857,1.163c0.04,0.053.1,0.1,0.136,0.149S2.088,1.4,2.125,1.447c0.16,0.211.371,0.38,0.531,0.59,0.038,0.051.1,0.089,0.136,0.14,0.068,0.09.154,0.163,0.222,0.253L3.061,2.471C3.208,2.664,3.4,2.819,3.547,3.012,3.6,3.08,3.67,3.136,3.724,3.206S3.848,3.33,3.9,3.4L3.946,3.44C4.015,3.53,4.1,3.6,4.169,3.693c0.025,0.033.066,0.057,0.091,0.09,0.094,0.124.215,0.223,0.309,0.347,0.025,0.033.066,0.057,0.091,0.09,0.121,0.159.279,0.287,0.4,0.447C5.1,4.715,5.153,4.753,5.191,4.8,5.339,5,5.533,5.153,5.681,5.347,5.745,5.432,5.839,5.5,5.9,5.582c0.147,0.193.339,0.348,0.486,0.541,0.04,0.053.1,0.1,0.136,0.149C6.578,6.341,6.65,6.4,6.7,6.465,6.74,6.514,6.8,6.552,6.834,6.6c0.022,0.029.038,0.06,0.059,0.09a0.367,0.367,0,0,1,.05.063,1.235,1.235,0,0,1,.027.135A0.274,0.274,0,0,1,7,7.016c-0.012.055-.029,0.118-0.045,0.171l-0.009.059A0.445,0.445,0,0,1,6.9,7.3c-0.045.063-.091,0.116-0.136,0.176-0.025.033-.066,0.057-0.091,0.09-0.135.177-.31,0.319-0.445,0.5C6.189,8.11,6.131,8.148,6.094,8.2c-0.068.09-.154,0.163-0.222,0.253-0.025.033-.066,0.057-0.091,0.09-0.055.072-.122,0.131-0.177,0.2l-0.045.041c-0.147.193-.339,0.348-0.486,0.541C5.02,9.393,4.949,9.448,4.9,9.518L4.85,9.559c-0.055.072-.122,0.131-0.177,0.2-0.025.033-.066,0.057-0.091,0.09-0.094.124-.215,0.223-0.309,0.347-0.025.033-.066,0.057-0.091,0.09C4.1,10.4,4,10.484,3.914,10.591c-0.024.031-.062,0.054-0.086,0.085-0.068.09-.154,0.163-0.222,0.253-0.025.033-.066,0.057-0.091,0.09-0.068.09-.154,0.162-0.222,0.253l-0.045.04c-0.147.193-.339,0.348-0.486,0.541-0.052.069-.124,0.124-0.177,0.194l-0.045.041c-0.055.072-.122,0.131-0.177,0.2-0.025.033-.066,0.057-0.091,0.09-0.108.141-.247,0.255-0.354,0.4-0.025.033-.066,0.057-0.091,0.09-0.108.141-.247,0.256-0.354,0.4-0.025.033-.066,0.057-0.091,0.09-0.055.072-.122,0.131-0.177,0.2l-0.045.04a1.389,1.389,0,0,1-.309.3,0.342,0.342,0,0,1-.05.041,0.784,0.784,0,0,1-.109.023C0.651,13.975.6,13.994,0.558,14L0.3,13.941A0.341,0.341,0,0,1,.254,13.9c-0.03-.021-0.063-0.035-0.091-0.058A0.508,0.508,0,0,1,.1,13.748a0.3,0.3,0,0,1-.045-0.059l-0.014-.076C0.027,13.565.011,13.508,0,13.459V12.264c0.013-.052.031-0.115,0.045-0.167l0.009-.058A0.222,0.222,0,0,1,.086,12c0.025-.034.043-0.069,0.068-0.1,0.045-.061.113-0.107,0.159-0.167,0.135-.176.31-0.319,0.445-0.5,0.039-.051.1-0.089,0.136-0.14,0.147-.193.339-0.348,0.486-0.541,0.052-.069.124-0.124,0.177-0.194L1.6,10.316c0.055-.072.122-0.131,0.177-0.2l0.045-.04c0.068-.09.154-0.163,0.223-0.253,0.025-.033.066-0.057,0.091-0.09,0.081-.106.183-0.192,0.263-0.3,0.025-.033.066-0.057,0.091-0.09C2.6,9.2,2.74,9.087,2.847,8.946c0.038-.051.1-0.089,0.136-0.14,0.133-.175.307-0.316,0.44-0.491l0.045-.041c0.041-.054.1-0.1,0.136-0.149,0.16-.211.371-0.38,0.531-0.591,0.052-.069.124-0.124,0.177-0.194L4.36,7.3c0.055-.072.122-0.131,0.177-0.2a0.329,0.329,0,0,0,.091-0.1,1.022,1.022,0,0,1-.15-0.167L4.432,6.786c-0.055-.072-0.122-0.131-0.177-0.2C4.218,6.534,4.161,6.5,4.123,6.448c-0.16-.211-0.371-0.38-0.531-0.591C3.567,5.824,3.526,5.8,3.5,5.767,3.433,5.677,3.347,5.6,3.279,5.514c-0.025-.033-0.066-0.057-0.091-0.09C3.041,5.231,2.849,5.076,2.7,4.883,2.65,4.814,2.578,4.759,2.525,4.689L2.479,4.648C2.425,4.577,2.357,4.518,2.3,4.446L2.257,4.405C2.189,4.315,2.1,4.242,2.034,4.153,2.011,4.121,1.972,4.1,1.948,4.067c-0.082-.108-0.186-0.194-0.268-0.3L1.635,3.724c-0.055-.072-0.122-0.131-0.177-0.2L1.412,3.481C1.357,3.409,1.29,3.35,1.235,3.278L1.19,3.237C1.043,3.044.851,2.889,0.7,2.7,0.652,2.627.58,2.572,0.527,2.5,0.5,2.47.461,2.445,0.436,2.412c-0.1-.13-0.222-0.235-0.318-0.37A0.877,0.877,0,0,1,.059,1.97L0.036,1.862A1.248,1.248,0,0,1,0,1.488V0.537C0.01,0.5.025,0.445,0.036,0.406A0.59,0.59,0,0,1,.059.3,0.457,0.457,0,0,1,.1.257C0.115,0.228.129,0.2,0.15,0.171A0.457,0.457,0,0,1,.259.095,0.457,0.457,0,0,1,.3.058C0.359,0.029.49,0.035,0.54,0Z"/>
</svg>
