<svg xmlns="http://www.w3.org/2000/svg" width="24" height="24" viewBox="0 0 24 24">
  <defs>
    <style>
      .cls-1 {
        fill: #7ea9e0;
        fill-rule: evenodd;
      }
    </style>
  </defs>
  <path id="Фигура_4" data-name="Фигура 4" class="cls-1" d="M23.54,18.3c-0.69-1.1-3.009-1.777-5.3-2.751A26.821,26.821,0,0,1,15.4,14.239L15.377,12A4.232,4.232,0,0,0,16.5,9.216c0.537,0.159,1.1-.816,1.132-1.33,0.03-.495-0.074-1.868-0.73-1.73A14.121,14.121,0,0,0,17.09,3.7,4.42,4.42,0,0,0,12.5,0a4.419,4.419,0,0,0-4.59,3.7,14.03,14.03,0,0,0,.183,2.455c-0.656-.138-0.76,1.235-0.73,1.73C7.4,8.4,7.958,9.375,8.5,9.216A4.228,4.228,0,0,0,9.624,12L9.6,14.239A26.843,26.843,0,0,1,6.763,15.55c-2.3.974-4.613,1.655-5.3,2.751-0.619.981-.433,5.7-0.433,5.7H23.973S24.159,19.282,23.54,18.3Z"/>
</svg>
