<?xml version="1.0" encoding="utf-8"?>
<!-- Generator: Adobe Illustrator 23.0.1, SVG Export Plug-In . SVG Version: 6.00 Build 0)  -->
<svg version="1.1" id="Capa_1" xmlns="http://www.w3.org/2000/svg" xmlns:xlink="http://www.w3.org/1999/xlink" x="0px" y="0px"
	 viewBox="0 0 95.5 95.5" style="enable-background:new 0 0 95.5 95.5;" xml:space="preserve">
<style type="text/css">
	.st0{fill:#FF9800;}
	.st1{fill:#FFFFFF;}
</style>
<rect class="st0" width="95.5" height="95.5"/>
<g>
	<g>
		<path class="st1" d="M44,63.1c-5.8-0.6-11.1-2-15.5-5.5c-0.6-0.4-1.1-0.9-1.6-1.3c-2-1.9-2.2-4-0.6-6.3c1.3-1.9,3.6-2.4,5.9-1.3
			c0.4,0.2,0.9,0.5,1.3,0.8c8.4,5.7,19.9,5.9,28.3,0.3c0.8-0.6,1.7-1.2,2.8-1.4c2-0.5,3.9,0.2,4.9,2c1.2,2,1.2,4-0.3,5.5
			C66.8,58,64,59.8,60.9,61c-2.9,1.1-6.1,1.7-9.3,2.1c0.5,0.5,0.7,0.8,1,1.1c4.3,4.3,8.7,8.7,13,13c1.5,1.5,1.8,3.3,1,5
			c-0.9,1.9-2.9,3.1-4.8,3c-1.2-0.1-2.2-0.7-3-1.6c-3.3-3.3-6.6-6.5-9.8-9.8c-0.9-1-1.4-0.8-2.2,0.1c-3.3,3.4-6.6,6.7-10,10
			c-1.5,1.5-3.3,1.8-5,0.9c-1.9-0.9-3-2.8-2.9-4.7c0.1-1.3,0.7-2.3,1.6-3.2c4.3-4.3,8.5-8.5,12.8-12.8C43.4,63.8,43.6,63.5,44,63.1z
			"/>
		<path class="st1" d="M47.6,48.2c-10.4,0-18.9-8.6-18.8-19c0.1-10.5,8.6-19,19-18.9c10.5,0,18.9,8.6,18.9,19.2
			C66.6,39.8,58.1,48.2,47.6,48.2z M57,29.2c0-5.2-4.1-9.3-9.3-9.3c-5.2,0-9.3,4.2-9.3,9.4c0,5.1,4.2,9.2,9.3,9.2
			C52.9,38.5,57,34.4,57,29.2z"/>
	</g>
</g>
</svg>
